<svg width="584" height="199" viewBox="0 0 584 199" fill="none" xmlns="http://www.w3.org/2000/svg">
<path d="M515.75 151.75C520.417 151.75 524.75 151.25 528.75 150.25C532.083 149.417 535.25 148.083 538.25 146.25C541.417 144.25 543.5 141.333 544.5 137.5C547.833 138.167 550.667 138.75 553 139.25C555.333 139.583 557.333 139.917 559 140.25C560.833 140.75 562.417 141.083 563.75 141.25C565.083 141.583 566.667 141.917 568.5 142.25C570.167 142.583 572.167 143 574.5 143.5C577 143.833 579.917 144.333 583.25 145C580.75 144.667 578.167 144.917 575.5 145.75C573 146.583 570.583 147.5 568.25 148.5C565.583 149.667 563.083 151.083 560.75 152.75C559.25 153.75 557.5 155.25 555.5 157.25C553.667 159.25 551 161.167 547.5 163C544 164.833 539.333 166.417 533.5 167.75C527.833 168.917 520.5 169.333 511.5 169C500.667 168.667 491.583 166.75 484.25 163.25C476.917 159.583 471 155.167 466.5 150C462 144.667 458.75 138.917 456.75 132.75C454.75 126.583 453.667 120.833 453.5 115.5C453.333 110.167 454.917 104.583 458.25 98.75C461.583 92.9167 466.25 87.5833 472.25 82.75C478.417 77.9167 485.833 74 494.5 71C503.167 67.8333 512.667 66.25 523 66.25C529 66.25 534.5 67 539.5 68.5C544.667 69.8333 549.333 71.6667 553.5 74C557.833 76.3333 561.583 79 564.75 82C567.917 84.8333 570.583 87.75 572.75 90.75C574.917 93.9167 576.75 97.25 578.25 100.75C579.583 103.75 580.667 107.167 581.5 111C582.333 114.833 582.583 118.75 582.25 122.75C569.583 123.083 559.333 123.333 551.5 123.5C543.833 123.667 537.833 123.75 533.5 123.75H522.25H513.75C510.75 123.75 506.833 123.833 502 124C497.167 124.167 491.25 124.417 484.25 124.75C485.083 131.417 487.167 136.583 490.5 140.25C494 143.75 497.667 146.417 501.5 148.25C505.833 150.25 510.583 151.417 515.75 151.75ZM493.25 106.75C498.583 107.083 503 107.333 506.5 107.5C510.167 107.667 513.167 107.833 515.5 108C518 108.167 520 108.25 521.5 108.25H527.75C531.917 108.25 539.667 108 551 107.5C550.5 100.167 548.917 94.5833 546.25 90.75C543.75 86.9167 541.083 84.0833 538.25 82.25C534.917 80.25 531.25 79.0833 527.25 78.75C516.417 78.9167 508.333 81.1667 503 85.5C497.833 89.8333 494.583 96.9167 493.25 106.75Z" fill="#800540"/>
<path d="M454.5 103.25C452.5 102.917 450 102.667 447 102.5C444.167 102.333 441.417 102.25 438.75 102.25C435.75 102.25 432.583 102.333 429.25 102.5C425.75 102.667 422.25 102.833 418.75 103C415.75 103.167 412.333 103.417 408.5 103.75C404.833 103.917 401.25 104.167 397.75 104.5C399.083 103.833 400.25 102.917 401.25 101.75C402.417 100.583 403.417 99.4165 404.25 98.2499C405.083 96.9165 405.833 95.4999 406.5 93.9999C407.333 91.4999 407.25 88.4999 406.25 84.9999C405.25 81.3332 403.417 77.9999 400.75 74.9999C398.25 71.9999 395 69.6665 391 67.9999C387.167 66.1665 382.917 65.7499 378.25 66.7499C373.25 67.9165 368.75 69.6665 364.75 71.9999C360.917 74.3332 357.667 77.5832 355 81.7499C352.5 85.7499 350.667 90.7499 349.5 96.7499C348.5 102.583 348.25 109.583 348.75 117.75C349.417 127.917 351.083 136 353.75 142C356.417 148 359.667 152.5 363.5 155.5C367.333 158.5 371.5 160.333 376 161C380.667 161.5 385.25 161.5 389.75 161C392.917 160.333 395.833 158.917 398.5 156.75C400.667 154.917 402.667 152.25 404.5 148.75C406.333 145.25 407.167 140.417 407 134.25L437.5 133C434 142.833 429.75 150.667 424.75 156.5C419.75 162.167 414.917 166.583 410.25 169.75C404.75 173.417 399.25 175.917 393.75 177.25C386.917 178.417 380.833 178.917 375.5 178.75C370.167 178.417 365.333 177.583 361 176.25C356.667 174.917 352.667 173.25 349 171.25C345.333 169.25 341.833 167.083 338.5 164.75C336.333 163.25 333.917 160.75 331.25 157.25C328.583 153.75 326.083 149.583 323.75 144.75C321.417 139.75 319.5 134.25 318 128.25C316.5 122.25 315.917 116.083 316.25 109.75C316.583 103.25 318.083 96.7499 320.75 90.2499C323.417 83.7499 327.667 77.4999 333.5 71.4999C342.333 62.4999 351.75 56.6665 361.75 53.9999C371.917 51.1665 381.5 50.4165 390.5 51.7499C399.5 52.9165 407.5 55.4999 414.5 59.4999C421.5 63.4999 426.417 67.8332 429.25 72.4999C432.083 77.1665 434.167 80.7499 435.5 83.2499C437 85.5832 438.083 87.4165 438.75 88.7499C439.583 89.9165 440.25 90.8332 440.75 91.4999C441.417 91.9999 442.333 92.7499 443.5 93.7499C444.333 94.5832 445.333 95.4999 446.5 96.4999C447.5 97.3332 448.667 98.3332 450 99.4999C451.333 100.667 452.833 101.917 454.5 103.25Z" fill="#CFE492"/>
<path d="M253.5 80.25L299.5 80.75C296.833 90.9167 294.833 99.5833 293.5 106.75C292.333 113.917 291.583 119.917 291.25 124.75C290.583 130.25 290.417 134.917 290.75 138.75C291.25 142.25 292.083 146 293.25 150C294.25 153.333 295.75 157.167 297.75 161.5C299.75 165.833 302.417 170.167 305.75 174.5C303.75 173.833 301.583 173.333 299.25 173C296.917 172.667 294.75 172.417 292.75 172.25C290.417 172.083 288.083 172.083 285.75 172.25C283.417 172.417 280.833 172.667 278 173C275.667 173.333 272.833 173.75 269.5 174.25C266.167 174.75 262.667 175.417 259 176.25C261.5 168.75 263.417 162.25 264.75 156.75C266.25 151.25 267.333 146.667 268 143C268.667 138.667 269.083 135.167 269.25 132.5C269.25 129.167 269.25 125.417 269.25 121.25C269.25 116.917 269.25 112.75 269.25 108.75C269.25 104.75 269.167 101.25 269 98.25C268.833 95.0833 268.5 93.0833 268 92.25L265.5 89.75C264.5 88.9167 263 87.75 261 86.25C259.167 84.5833 256.667 82.5833 253.5 80.25ZM271.25 41.75C274.75 39.9167 278.25 39.4167 281.75 40.25C285.417 41.0833 288.25 42.6667 290.25 45C292.25 47.3333 292.917 50.0833 292.25 53.25C291.75 56.4167 289.083 59.5 284.25 62.5C279.417 65.3333 275.167 66.3333 271.5 65.5C267.833 64.6667 265.25 62.9167 263.75 60.25C262.25 57.5833 262 54.5 263 51C264 47.3333 266.75 44.25 271.25 41.75Z" fill="#8D6558"/>
<path d="M202.75 199C204.417 196.5 205.75 194.167 206.75 192C207.75 189.833 208.583 188 209.25 186.5C209.917 184.667 210.417 183 210.75 181.5C210.917 180.5 211 177.583 211 172.75C211 167.917 210.833 161.833 210.5 154.5C210.333 147.167 210.083 138.917 209.75 129.75C209.583 120.583 209.25 111.25 208.75 101.75C208.417 92.25 208 83 207.5 74C207.167 65 206.833 56.9167 206.5 49.75C206.167 42.4167 205.833 36.4167 205.5 31.75C205.167 27.0833 204.917 24.4167 204.75 23.75C204.417 22.75 203.833 21.75 203 20.75C201.333 18.75 198.5 16.8333 194.5 15C203 12.8333 209.5 11.0833 214 9.75C216.667 9.08333 219 8.41667 221 7.75C222.833 7.08333 224.667 6.41667 226.5 5.75C228 5.08333 229.667 4.33333 231.5 3.5C233.333 2.5 235 1.41667 236.5 0.25C235.667 5.08333 235 9.75 234.5 14.25C234 18.75 233.583 22.9167 233.25 26.75C232.917 31.0833 232.75 35.25 232.75 39.25C231.917 47.4167 231.417 56.3333 231.25 66C231.25 75.5 231.333 85.1667 231.5 95C231.667 104.833 232 114.417 232.5 123.75C233 133.083 233.5 141.583 234 149.25C234.667 156.75 235.25 163.167 235.75 168.5C236.417 173.667 236.917 177 237.25 178.5C237.917 181 238.583 183.417 239.25 185.75C239.917 187.75 240.667 189.833 241.5 192C242.333 194.333 243.333 196.167 244.5 197.5H220.25C218.083 197.5 216 197.583 214 197.75C212.167 197.917 210.25 198.083 208.25 198.25C206.25 198.417 204.417 198.667 202.75 199Z" fill="#529894"/>
<path d="M66.5 22.75C74.8333 23.25 81.8333 23.6667 87.5 24C93.3333 24.1667 98.1667 24.3333 102 24.5C106.333 24.6667 110 24.6667 113 24.5C116 24.3333 120.083 23.9167 125.25 23.25C129.583 22.75 135.333 22 142.5 21C149.833 19.8333 158.917 18.3333 169.75 16.5C165.917 20.3333 162.917 23.8333 160.75 27C158.75 30 157.167 32.5833 156 34.75C154.667 37.4167 153.75 39.6667 153.25 41.5C152.917 43.1667 153.25 47.3333 154.25 54C155.25 60.6667 156.667 68.5833 158.5 77.75C160.333 86.75 162.333 96.4167 164.5 106.75C166.667 116.917 168.833 126.5 171 135.5C173.167 144.333 175.083 151.917 176.75 158.25C178.583 164.417 179.917 168.083 180.75 169.25C183.25 172.75 184.833 175.083 185.5 176.25C186.167 177.25 187.333 178.167 189 179C189.667 179.333 190.75 179.833 192.25 180.5C193.583 181.167 195.333 182 197.5 183C199.833 184 202.75 185.167 206.25 186.5C199.75 186.833 194.167 187.083 189.5 187.25C184.833 187.25 181 187.333 178 187.5C174.5 187.667 171.5 187.833 169 188C166.5 188 163.5 188.167 160 188.5C157 188.833 153.083 189.167 148.25 189.5C143.583 189.833 138.083 190.167 131.75 190.5C135.083 188.167 137.75 186.083 139.75 184.25C141.917 182.25 143.583 180.583 144.75 179.25C146.083 177.583 147 176.083 147.5 174.75C147.833 173.25 148.083 171 148.25 168C148.417 165.333 148.417 161.833 148.25 157.5C148.083 153 147.667 147.167 147 140L81.25 146.75C79.5833 149.583 78.3333 152.083 77.5 154.25C76.6667 156.25 76.0833 158 75.75 159.5C75.25 161.333 75.0833 162.833 75.25 164C75.5833 165.333 76.1667 166.917 77 168.75C77.8333 170.417 79 172.417 80.5 174.75C82.1667 176.917 84.5833 179.5 87.75 182.5C83.5833 182.333 79.3333 182.25 75 182.25C70.6667 182.25 66.6667 182.333 63 182.5C58.6667 182.667 54.4167 182.833 50.25 183C46.0833 183.167 41.3333 183.417 36 183.75C31.5 184.083 26.25 184.5 20.25 185C14.0833 185.333 7.5 185.833 0.5 186.5C4.83333 184.5 8.5 182.5 11.5 180.5C14.5 178.333 17 176.333 19 174.5C21.3333 172.5 23.3333 170.583 25 168.75C26.1667 167.083 28.5 163.25 32 157.25C35.5 151.083 39.4167 143.833 43.75 135.5C48.25 127.167 52.9167 118.25 57.75 108.75C62.75 99.25 67.25 90.3333 71.25 82C75.25 73.5 78.5 66.1667 81 60C83.5 53.8333 84.75 49.8333 84.75 48C84.4167 45.8333 83.5833 43.4167 82.25 40.75C81.0833 38.4167 79.25 35.75 76.75 32.75C74.4167 29.75 71 26.4167 66.5 22.75ZM144 121.5C143 115.667 142.083 110.667 141.25 106.5C140.417 102.167 139.75 98.5833 139.25 95.75C138.583 92.4167 138.083 89.5 137.75 87C137.25 84.6667 136.667 81.6667 136 78C135.333 74.8333 134.5 70.9167 133.5 66.25C132.667 61.4167 131.583 55.6667 130.25 49C120.75 68 113.333 82.75 108 93.25C102.833 103.583 99.0833 111.167 96.75 116C93.9167 121.667 92.3333 125 92 126L144 121.5Z" fill="#CF6CD2"/>
</svg>
